name C:\Users\u0101727\Documents\MyRepositories\upper-imu-dc\Results\main_mocap_tracking\Case_9\kinematics.mot
datacolumns 12
datarows 23
range 1.50000000 1.72000000
endheader 
time	clav_prot	clav_elev	scapula_abduction	scapula_elevation	scapula_upward_rot	scapula_winging	plane_elv	shoulder_elv	axial_rot	elbow_flexion	pro_sup	
          1.50000000	        -21.89345597	          9.91733543	         -1.00549326	          1.69596318	         34.75071569	         -2.84618608	         86.28738204	         61.33492961	        -23.49418367	         14.49593514	         24.31722506	
          1.51000000	        -21.85131427	         10.01537583	         -0.63104357	          1.69647023	         35.16547152	         -2.95442528	         86.84704878	         62.07470000	        -23.59078399	         14.48665833	         24.62928075	
          1.52000000	        -21.84088956	         10.11944283	         -0.32509731	          1.70232135	         35.56902495	         -3.05877196	         87.35551499	         62.80472578	        -23.70000390	         14.47892750	         24.88924304	
          1.53000000	        -21.82336767	         10.22872551	         -0.01938194	          1.71571515	         35.95758679	         -3.15836361	         87.81394652	         63.52903656	        -23.82725278	         14.47204952	         25.09097182	
          1.54000000	        -21.87824237	         10.35426518	          0.12914538	          1.74112786	         36.32378689	         -3.25159504	         88.22046078	         64.25445987	        -23.97239707	         14.46875585	         25.23551768	
          1.55000000	        -21.96474664	         10.51593021	          0.18128766	          1.79596931	         36.66129344	         -3.33759754	         88.57642841	         64.99496841	        -24.13749066	         14.47310274	         25.31930916	
          1.56000000	        -21.93797831	         10.68763667	          0.43161440	          1.86632942	         36.99088145	         -3.42040238	         88.89021265	         65.73329807	        -24.32555114	         14.47342363	         25.33433797	
          1.57000000	        -21.88548179	         10.86518282	          0.72712626	          1.94296386	         37.31966007	         -3.50183404	         89.15962789	         66.45860082	        -24.53407459	         14.47223242	         25.28237647	
          1.58000000	        -21.78216133	         11.03316343	          1.12198751	          2.01608251	         37.64890641	         -3.58209551	         89.38439927	         67.16503890	        -24.75658470	         14.46759504	         25.17378779	
          1.59000000	        -21.77672275	         11.20551107	          1.33673717	          2.08695738	         37.97975906	         -3.66183899	         89.56724892	         67.85396855	        -24.98692521	         14.46063624	         25.01957201	
          1.60000000	        -21.77144596	         11.37412723	          1.55576157	          2.15528073	         38.31310590	         -3.74103175	         89.71182481	         68.52703818	        -25.21759752	         14.45155865	         24.83299250	
          1.61000000	        -21.76532416	         11.53646612	          1.78298614	          2.21914958	         38.65005044	         -3.81994860	         89.82248799	         69.18481421	        -25.44092480	         14.44043731	         24.62774601	
          1.62000000	        -21.75910463	         11.69015342	          2.01860235	          2.27677384	         38.99119095	         -3.89876475	         89.90317131	         69.82787004	        -25.65039153	         14.42764443	         24.41516308	
          1.63000000	        -21.75487687	         11.83436381	          2.25938311	          2.32744455	         39.33682320	         -3.97758949	         89.95749967	         70.45718460	        -25.84243460	         14.41341704	         24.20209660	
          1.64000000	        -21.75473823	         11.97048316	          2.50072278	          2.37209720	         39.68678306	         -4.05640128	         89.98861491	         71.07437638	        -26.01793868	         14.39811601	         23.98864272	
          1.65000000	        -21.75845726	         12.10154324	          2.74130600	          2.41301878	         40.04054310	         -4.13504938	         89.99978382	         71.68182560	        -26.18204754	         14.38178468	         23.76838732	
          1.66000000	        -21.76304547	         12.23070370	          2.98507669	          2.45270298	         40.39779162	         -4.21339006	         89.99487003	         72.28215076	        -26.34204548	         14.36388323	         23.53177223	
          1.67000000	        -21.76409968	         12.35943802	          3.23955754	          2.49248659	         40.75844969	         -4.29131928	         89.97654570	         72.87694734	        -26.50353127	         14.34550311	         23.27165198	
          1.68000000	        -21.75837822	         12.48648807	          3.51163626	          2.53164741	         41.12282117	         -4.36885411	         89.94759010	         73.46706190	        -26.66736785	         14.32769996	         22.98780258	
          1.69000000	        -21.74472836	         12.60788163	          3.80555486	          2.56741578	         41.49129623	         -4.44610258	         89.91046463	         74.05258336	        -26.82904865	         14.31151756	         22.68814891	
          1.70000000	        -21.72375914	         12.71796135	          4.12261415	          2.59579649	         41.86385628	         -4.52315882	         89.86670649	         74.63304270	        -26.98074497	         14.29802778	         22.38597983	
          1.71000000	        -21.69696833	         12.81100043	          4.46168851	          2.61281982	         42.23963408	         -4.59997529	         89.81665024	         75.20783824	        -27.11481316	         14.28817449	         22.09496831	
          1.72000000	        -21.66584797	         12.88251806	          4.82021708	          2.61552548	         42.61681287	         -4.67629556	         89.75944415	         75.77655909	        -27.22638022	         14.28262990	         21.82529238	
